Coordinates
version=1
nRows=15
nColumns=42
inDegrees=yes

Units are S.I. units (second, meters, Newtons, ...)
If the header above contains a line with 'inDegrees', this indicates whether rotational values are in degrees (yes) or radians (no).

endheader
time	pelvis_tilt	pelvis_list	pelvis_rotation	pelvis_tx	pelvis_ty	pelvis_tz	hip_flexion_r	hip_adduction_r	hip_rotation_r	knee_angle_r	knee_angle_r_beta	ankle_angle_r	subtalar_angle_r	mtp_angle_r	hip_flexion_l	hip_adduction_l	hip_rotation_l	knee_angle_l	knee_angle_l_beta	ankle_angle_l	subtalar_angle_l	mtp_angle_l	lumbar_extension	lumbar_bending	lumbar_rotation	sh_tx_r	sh_ty_r	sh_tz_r	sh_plane_elev_r	sh_elev_r	sh_axial_rot_r	elbow_flex_r	pro_sup_r	sh_tx_l	sh_ty_l	sh_tz_l	sh_plane_elev_l	sh_elev_l	sh_axial_rot_l	elbow_flex_l	pro_sup_l
      7.79661020	     -2.76022810	     -0.37076573	      1.72698866	      0.21742973	      0.95040434	     -0.05682350	      1.53957142	     -4.65959856	    -11.98604368	      2.60096480	      0.04539540	      1.36025478	     -9.55618603	     -7.49999987	      1.47460351	     -2.59839845	     -6.37125979	      1.77099380	      0.03090967	      8.26021987	     -1.78703714	     -7.49999987	      0.97402217	     -0.01201558	     -3.68203453	     -0.00851406	     -0.01385286	     -0.00576975	    -14.19041805	      5.02537933	      2.12448188	     29.63259382	    113.10675261	     -0.01338366	     -0.00025011	     -0.00445522	     61.80830299	     65.94394772	     -7.37023055	     14.58314514	      2.39439052
      7.81355930	     -2.77625141	     -0.33607966	      1.60214099	      0.21764056	      0.95365814	     -0.05655940	      1.60473018	     -4.69728853	    -12.06893803	      2.66135847	      0.04644947	      1.33044003	     -9.53436545	     -7.49999987	      1.45686180	     -2.55930883	     -6.45111362	      1.73393524	      0.03026288	      8.12936636	     -1.85004490	     -7.49999987	      0.98818888	      0.00537255	     -3.83659693	     -0.00839694	     -0.01377435	     -0.00583330	    -14.03187843	      4.97564831	      1.66726012	     29.84621747	    113.09838588	     -0.01345078	      0.00023050	     -0.00449536	     61.31498099	     64.88022514	     -7.59685215	     14.75479862	      2.40890935
      7.83050850	     -2.74627906	     -0.31721780	      1.48141810	      0.21750255	      0.95358394	     -0.05652108	      1.61764603	     -4.72370455	    -12.03249536	      2.72520604	      0.04756382	      1.38771589	     -9.43869417	     -7.49999987	      1.40401683	     -2.53588937	     -6.58790992	      1.74563705	      0.03046711	      8.11045540	     -1.79851558	     -7.49999987	      1.00504881	      0.05282528	     -3.91132354	     -0.00856877	     -0.01370114	     -0.00586928	    -13.78395906	      4.91703750	      1.20692252	     29.99506950	    112.89592563	     -0.01289508	     -0.00006577	     -0.00463338	     60.52519536	     63.89740973	     -9.96053148	     15.49433329	      2.44725915
      7.84745760	     -2.82196798	     -0.28977401	      1.40501249	      0.21781095	      0.95059700	     -0.05637359	      1.74265213	     -4.76640844	    -12.03749200	      2.82904746	      0.04937619	      1.47788451	     -9.36698656	     -7.49999987	      1.47469400	     -2.49375320	     -6.51112815	      1.75809667	      0.03068458	      8.03877871	     -2.08371405	     -7.49999987	      1.16918823	      0.09676239	     -3.99888256	     -0.00781923	     -0.01370732	     -0.00581786	    -13.99640974	      5.00673478	      1.83659828	     30.26798466	    113.00751488	     -0.01225011	     -0.00114392	     -0.00465937	     60.36900935	     63.34176272	    -10.09406964	     15.71480797	      2.45705523
      7.86440680	     -2.82238924	     -0.28933119	      1.29495047	      0.21773023	      0.95059757	     -0.05595568	      1.78375791	     -4.76428840	    -11.81675851	      2.87131736	      0.05011394	      1.48996924	     -9.53044217	     -7.49999987	      1.45600447	     -2.50480799	     -6.66294237	      1.79228031	      0.03128119	      8.19666698	     -1.95670054	     -7.49999987	      1.24607416	      0.18868768	     -4.18383867	     -0.00747428	     -0.01362151	     -0.00581966	    -12.66391322	      5.06824240	      0.90048239	     30.13291853	    112.36064979	     -0.01136760	     -0.00158386	     -0.00484085	     59.52077918	     62.48238274	    -14.41963135	     18.20012226	      2.57849973
      7.88135590	     -2.90633953	     -0.24842032	      1.19078531	      0.21794537	      0.95382563	     -0.05596483	      1.92647817	     -4.82381315	    -11.81189995	      2.98086314	      0.05202588	      1.63686705	     -9.30101238	     -7.49999987	      1.51406688	     -2.45333158	     -6.60442359	      1.75300051	      0.03059563	      8.11800107	     -2.17963512	     -7.49999987	      1.46624484	      0.17817138	     -3.80287596	     -0.00685269	     -0.01375060	     -0.00577285	    -13.14390984	      5.24513607	      1.22017092	     29.63138554	    112.59588498	     -0.00986226	     -0.00207521	     -0.00488398	     60.00423478	     61.34789781	    -14.13348845	     17.38450406	      2.56125906
      7.89830510	     -3.00495639	     -0.20063306	      1.05631483	      0.21784316	      0.94741795	     -0.05576745	      2.09597000	     -4.90229639	    -11.73126667	      3.07431311	      0.05365689	      1.84265713	     -9.28454028	     -7.49999987	      1.59844589	     -2.38656137	     -6.66200513	      1.77488292	      0.03097755	      8.26336224	     -2.32820263	     -7.49999987	      1.65180481	      0.19554565	     -3.84110833	     -0.00610395	     -0.01352719	     -0.00573335	    -12.28930876	      5.40783953	      0.66879640	     29.02177442	    112.21895855	     -0.00916722	     -0.00266311	     -0.00496837	     60.10393870	     60.47324930	    -14.88614452	     16.87326613	      2.52379814
      7.91525420	     -3.09096016	     -0.14807967	      0.97509043	      0.21813355	      0.95104781	     -0.05578414	      2.23761372	     -4.96989931	    -11.61094329	      3.16068776	      0.05516441	      1.89112462	     -9.35671842	     -7.49999987	      1.67962678	     -2.33381630	     -6.57414844	      1.80454695	      0.03149529	      8.26082130	     -2.54584310	     -7.49999987	      1.74204521	      0.19223918	     -3.85328573	     -0.00674337	     -0.01317769	     -0.00571559	    -12.05784838	      5.72754331	      0.58392556	     28.76334649	    112.14536657	     -0.00867093	     -0.00288470	     -0.00503496	     59.99163638	     59.37094973	    -16.42967484	     16.82412658	      2.64008010
      7.93220340	     -3.14103589	     -0.09956021	      0.81549119	      0.21796354	      0.95109713	     -0.05565996	      2.36154802	     -5.02470866	    -11.34943367	      3.25487911	      0.05680836	      1.89284850	     -9.55905134	     -7.49999987	      1.71235821	     -2.28190851	     -6.65847098	      1.82940891	      0.03192921	      8.39176250	     -2.59202243	     -7.49999987	      1.80317578	      0.27649115	     -4.25638159	     -0.00617155	     -0.01274868	     -0.00573872	    -12.94343552	      5.85807602	      1.03426177	     28.70298399	    111.82744344	     -0.00863529	     -0.00352077	     -0.00517517	     59.14057211	     58.34228546	    -18.67097868	     17.24149052	      2.61191991
      7.94915250	     -3.11345198	     -0.05779061	      0.74518626	      0.21819180	      0.95133621	     -0.05538431	      2.35707866	     -5.05321112	    -11.32904572	      3.32226592	      0.05798448	      2.03669717	     -9.34925638	     -7.49999987	      1.65071686	     -2.24286087	     -6.54928761	      1.82525302	      0.03185667	      8.36990116	     -2.80522039	     -7.49999987	      1.77503398	      0.28610751	     -4.43720012	     -0.00628996	     -0.01257571	     -0.00573142	    -14.94191658	      5.84395991	      2.09397309	     29.17034472	    112.19255773	     -0.00803989	     -0.00443712	     -0.00525812	     58.81591618	     57.56113094	    -20.17357018	     17.51916893	      2.71740942
      7.96610170	     -3.34988756	     -0.04384006	      0.72218528	      0.21756215	      0.95096932	     -0.05560546	      2.84053185	     -5.12233031	    -11.42018667	      3.76304167	      0.06567747	      2.28473758	     -9.12685340	     -7.49999987	      2.14305648	     -2.24664773	     -6.52613066	      2.30089630	      0.04015822	      8.66594734	     -2.87030602	     -7.49999987	      2.15398218	      0.54848695	     -5.58493185	     -0.00351378	     -0.00945222	     -0.00555714	    -12.70654463	      6.24822650	      2.44270944	     28.99785541	    105.59499209	     -0.00640494	     -0.00157940	     -0.00523953	     55.40477626	     55.65211172	    -26.05927288	     20.69647303	      6.35818379
      7.98305080	     -3.30389522	      0.00763225	      0.53421136	      0.21424413	      0.94826556	     -0.05031501	      2.71145614	     -5.01533600	    -11.09002535	      3.39367778	      0.05923085	      2.11939412	     -9.59781690	     -7.49999987	      1.78788187	     -2.20123469	     -6.57425489	      1.69153831	      0.02952291	      8.55518901	     -2.79678518	     -7.49999987	      2.12588474	      0.27113876	     -5.68782466	     -0.00413147	     -0.01185916	     -0.00593342	    -12.91302452	      6.14880955	      1.76929126	     29.26651490	    108.71607590	     -0.00742576	     -0.00376240	     -0.00572071	     54.63892586	     55.30877067	    -28.97449688	     21.09358823	      2.80762359
      8.00000000	     -3.38493839	     -0.01313537	      0.36605592	      0.21391942	      0.94852298	     -0.05039195	      2.91875379	     -4.88932038	    -10.98703734	      3.40476248	      0.05942432	      2.18360741	     -9.66463522	     -7.49999987	      1.85246465	     -2.27009181	     -6.56864232	      1.58172773	      0.02760636	      8.47455773	     -2.93205553	     -7.49999987	      2.17678507	      0.27855578	     -5.93054794	     -0.00317743	     -0.01168049	     -0.00591254	    -13.32026773	      6.11756169	      1.81991735	     29.75056587	    109.06950497	     -0.00661835	     -0.00357684	     -0.00579341	     53.38515796	     54.25218644	    -31.25440497	     21.90095484	      3.15695574
      8.01694920	     -3.49172921	      0.00244533	      0.19884718	      0.21421954	      0.95479407	     -0.05021662	      3.12289622	     -4.81193390	    -10.96720249	      3.38327901	      0.05904936	      2.21729680	     -9.56442991	     -7.49999987	      1.94768024	     -2.30462442	     -6.60688189	      1.49455104	      0.02608484	      8.34307471	     -3.02345443	     -7.49999987	      2.26886333	      0.26460107	     -5.91170549	     -0.00259877	     -0.01234067	     -0.00591515	    -14.09446676	      5.95529538	      1.40758643	     29.89412093	    111.05341522	     -0.00538401	     -0.00337990	     -0.00583875	     52.78805446	     52.60650309	    -31.54338969	     22.17619986	      3.37964432
      8.03389830	     -3.55977247	     -0.00188219	      0.09841701	      0.21393986	      0.95137374	     -0.05003262	      3.26697951	     -4.74257651	    -10.89358609	      3.30182476	      0.05762771	      2.08415244	     -9.80651164	     -7.49999987	      2.02800035	     -2.33951203	     -6.62661811	      1.43918526	      0.02511852	      8.29439133	     -3.19549643	     -7.49999987	      2.22493558	      0.43417412	     -7.01094376	      0.00102691	     -0.01258201	     -0.00598189	    -13.16288963	      6.20863128	      1.48049220	     30.38222995	    108.41627613	     -0.00781040	     -0.00260544	     -0.00591759	     51.05714633	     50.82354614	    -32.84022585	     23.26250062	      3.69636660
